<svg width="68" height="49" viewBox="0 0 68 49" fill="none" xmlns="http://www.w3.org/2000/svg">
<path d="M67.354 18.3582C67.15 18.2228 65.45 16.9018 61.778 16.9018C60.826 16.9018 59.874 17.0034 58.922 17.1727C58.208 12.4308 54.23 10.0259 54.06 9.92429L53.074 9.34848L52.462 10.263C51.646 11.4824 51 12.8711 50.728 14.2937C50.048 17.0034 50.456 19.5776 51.85 21.7792C50.184 22.7276 47.464 22.9647 46.886 22.9647H2.108C0.952 22.9647 0 23.9131 0 25.0986C0 28.9938 0.612 32.889 1.972 36.5471C3.502 40.5778 5.814 43.5585 8.772 45.3875C12.104 47.4198 17.578 48.5714 23.8 48.5714C26.486 48.5714 29.274 48.3343 32.028 47.8263C35.836 47.1488 39.508 45.8279 42.874 43.8972C45.6617 42.3091 48.1569 40.2587 50.252 37.8342C53.822 33.8713 55.93 29.3664 57.46 25.4712H58.106C61.982 25.4712 64.396 23.9131 65.722 22.5922C66.606 21.7792 67.252 20.797 67.728 19.6453L68 18.8324L67.354 18.3582ZM6.29 21.7115H12.274C12.546 21.7115 12.818 21.4744 12.818 21.1696V15.8179C12.818 15.5469 12.58 15.276 12.274 15.276H6.29C5.984 15.276 5.746 15.5131 5.746 15.8179V21.1696C5.78 21.4744 5.984 21.7115 6.29 21.7115ZM14.552 21.7115H20.536C20.808 21.7115 21.08 21.4744 21.08 21.1696V15.8179C21.08 15.5469 20.842 15.276 20.536 15.276H14.552C14.246 15.276 14.008 15.5131 14.008 15.8179V21.1696C14.042 21.4744 14.246 21.7115 14.552 21.7115ZM22.95 21.7115H28.9C29.24 21.7115 29.478 21.4744 29.478 21.1696V15.8179C29.478 15.5469 29.274 15.276 28.9 15.276H22.95C22.678 15.276 22.44 15.5131 22.44 15.8179V21.1696C22.44 21.4744 22.644 21.7115 22.95 21.7115ZM31.246 21.7115H37.264C37.536 21.7115 37.774 21.4744 37.774 21.1696V15.8179C37.774 15.5469 37.57 15.276 37.264 15.276H31.246C30.974 15.276 30.736 15.5131 30.736 15.8179V21.1696C30.736 21.4744 30.974 21.7115 31.246 21.7115ZM14.552 14.1243H20.536C20.808 14.1243 21.08 13.8195 21.08 13.5146V8.19685C21.08 7.89201 20.842 7.65491 20.536 7.65491H14.552C14.246 7.65491 14.008 7.85814 14.008 8.19685V13.5146C14.042 13.8195 14.246 14.1243 14.552 14.1243ZM22.95 14.1243H28.9C29.24 14.1243 29.478 13.8195 29.478 13.5146V8.19685C29.478 7.89201 29.274 7.65491 28.9 7.65491H22.95C22.678 7.65491 22.44 7.85814 22.44 8.19685V13.5146C22.44 13.8195 22.644 14.1243 22.95 14.1243ZM31.246 14.1243H37.264C37.536 14.1243 37.774 13.8195 37.774 13.5146V8.19685C37.774 7.89201 37.536 7.65491 37.264 7.65491H31.246C30.974 7.65491 30.736 7.85814 30.736 8.19685V13.5146C30.736 13.8195 30.974 14.1243 31.246 14.1243ZM31.246 6.40167H37.264C37.536 6.40167 37.774 6.16457 37.774 5.85973V0.575812C37.774 0.237099 37.536 0 37.264 0H31.246C30.974 0 30.736 0.203228 30.736 0.575812V5.85973C30.736 6.1307 30.974 6.40167 31.246 6.40167ZM39.61 21.7115H45.594C45.9 21.7115 46.138 21.4744 46.138 21.1696V15.8179C46.138 15.5469 45.9 15.276 45.594 15.276H39.61C39.338 15.276 39.1 15.5131 39.1 15.8179V21.1696C39.1 21.4744 39.338 21.7115 39.61 21.7115Z" fill="white"/>
</svg>
