<svg width="68" height="68" viewBox="0 0 68 68" fill="none" xmlns="http://www.w3.org/2000/svg">
<g id="cib:mysql" clip-path="url(#clip0_247_827)">
<path id="Vector" d="M46.4844 16.0821C46.1529 16.0821 45.9319 16.1268 45.7088 16.182V16.216H45.7428C45.8979 16.5029 46.1529 16.726 46.3506 16.9916C46.5057 17.2913 46.6374 17.5994 46.7819 17.899L46.8266 17.8544C47.0922 17.6653 47.2261 17.3678 47.2261 16.913C47.1156 16.7791 47.0922 16.6368 46.9944 16.5135C46.8839 16.3244 46.6396 16.2266 46.4844 16.0821ZM16.3477 53.4673H13.7254C13.646 49.2934 13.3915 45.1248 12.9626 40.9723H12.9413L8.94632 53.4673H6.94245L2.97932 40.9723H2.94532C2.63734 45.1309 2.45309 49.2977 2.39282 53.4673H0.00219727C0.131644 48.2274 0.519574 42.997 1.16457 37.7954H4.41795L8.20257 49.3065H8.22382L12.0424 37.7954H15.1407C15.8271 43.5074 16.2372 48.7306 16.3583 53.4673H16.3477ZM27.7249 41.903C26.6624 47.7021 25.2451 51.9203 23.5089 54.5425C22.1362 56.5676 20.6423 57.5855 19.0146 57.5855C18.5832 57.5855 18.0519 57.4516 17.4102 57.186V55.792C17.7311 55.8366 18.0966 55.8685 18.5067 55.8685C19.2696 55.8685 19.8794 55.6475 20.3448 55.2374C20.8973 54.7274 21.1757 54.1536 21.1757 53.5225C21.1757 53.0805 20.9653 52.1944 20.5233 50.845L17.6567 41.903H20.2364L22.2956 48.5883C22.7609 50.1161 22.9607 51.168 22.8714 51.7758C24.0104 48.7646 24.7967 45.4666 25.2408 41.903H27.7249ZM62.6536 53.4673H55.1948V37.7954H57.7066V51.542H62.6536V53.4673ZM53.2462 53.8455L50.3689 52.4281C50.6239 52.2178 50.8662 51.9861 51.0893 51.7205C52.3176 50.2925 52.9274 48.1569 52.9274 45.3455C52.9274 40.1541 50.8917 37.5659 46.8181 37.5659C44.8248 37.5659 43.2651 38.2183 42.1473 39.5358C40.9297 40.9744 40.3092 43.0994 40.3092 45.9001C40.3092 48.6563 40.8511 50.6708 41.9369 51.9649C42.9336 53.1166 44.4274 53.7031 46.4313 53.7031C47.1729 53.7031 47.8593 53.6139 48.4798 53.4269L52.2326 55.6178L53.2611 53.8476L53.2462 53.8455ZM43.9174 50.3244C43.2757 49.3065 42.9654 47.6681 42.9654 45.4093C42.9654 41.4589 44.1618 39.489 46.5631 39.489C47.8147 39.489 48.7433 39.965 49.3298 40.9064C49.9609 41.9349 50.2818 43.552 50.2818 45.7875C50.2818 49.7613 49.0748 51.7651 46.6842 51.7651C45.4219 51.7651 44.5039 51.2891 43.9068 50.3478L43.9174 50.3244ZM39.2233 49.1301C39.2233 50.4583 38.7367 51.5548 37.7507 52.3941C36.7774 53.2463 35.4812 53.6776 33.8322 53.6776C32.2937 53.6776 30.8211 53.191 29.3718 52.2156L30.0476 50.8663C31.2864 51.4868 32.4042 51.797 33.4242 51.797C34.3656 51.797 35.1072 51.5866 35.6384 51.1765C36.1697 50.7558 36.4906 50.1693 36.4906 49.4276C36.4906 48.4969 35.8382 47.7 34.6524 47.037C33.5559 46.4293 31.3544 45.1776 31.3544 45.1776C30.1581 44.3043 29.5716 43.3735 29.5716 41.835C29.5716 40.5621 30.0136 39.5443 30.8997 38.7686C31.7964 37.9718 32.9354 37.585 34.3528 37.585C35.763 37.5728 37.1453 37.9771 38.3266 38.7474L37.7188 40.0968C36.7693 39.6786 35.7451 39.4567 34.7077 39.4444C33.9002 39.4444 33.2797 39.6441 32.8483 40.0309C32.4169 40.4176 32.1513 40.9043 32.1513 41.5141C32.1513 42.4449 32.8164 43.2418 34.0319 43.926C35.1497 44.5338 37.3958 45.8194 37.3958 45.8194C38.6241 46.6821 39.2339 47.6129 39.2339 49.128L39.2233 49.1301ZM65.7986 32.5403C64.2813 32.5063 63.1083 32.6614 62.1244 33.0821C61.8482 33.1926 61.3935 33.1926 61.3488 33.5475C61.504 33.7026 61.5252 33.947 61.6591 34.1553C61.8907 34.5314 62.2796 35.0414 62.6451 35.307C63.0446 35.6173 63.4419 35.9275 63.8521 36.1931C64.5937 36.6479 65.4246 36.9135 66.1534 37.3661C66.5636 37.6318 66.9843 37.9739 67.3923 38.2523C67.6027 38.3968 67.7344 38.6518 68.0001 38.7389V38.6836C67.8662 38.5179 67.8343 38.2735 67.7004 38.0759C67.5113 37.8868 67.3243 37.721 67.1352 37.534C66.581 36.7982 65.9166 36.1524 65.1653 35.6194C64.5576 35.2093 63.2294 34.6334 62.9851 33.9364L62.9511 33.8918C63.3612 33.8578 63.8478 33.7026 64.2452 33.5921C64.8869 33.4264 65.4841 33.4583 66.1492 33.2925C66.4543 33.2133 66.7569 33.1247 67.0566 33.0269V32.8611C66.7144 32.519 66.4594 32.0536 66.1046 31.7328C65.1267 30.8771 64.0829 30.0998 62.9829 29.408C62.3858 29.0213 61.6336 28.7769 61.0024 28.456C60.7814 28.3455 60.3947 28.2903 60.2715 28.1011C59.9293 27.6804 59.7296 27.1385 59.4852 26.6391C58.9293 25.5588 58.4126 24.4587 57.9361 23.3411C57.5939 22.5995 57.3942 21.8685 56.9735 21.1821C55.0248 17.9606 52.8998 16.0141 49.6465 14.0995C48.9495 13.7 48.1079 13.5343 47.2218 13.3239C46.7458 13.3026 46.2804 13.2686 45.8044 13.2474C45.4942 13.1135 45.1967 12.7608 44.9311 12.5823C43.8473 11.8959 41.0572 10.4233 40.2709 12.3719C39.7609 13.6108 41.0232 14.8178 41.4673 15.4383C41.7882 15.8803 42.1983 16.369 42.4299 16.8556C42.5638 17.1871 42.5957 17.5314 42.7296 17.8735C43.0292 18.7044 43.3161 19.633 43.7156 20.4086C43.9259 20.8081 44.1469 21.2268 44.4126 21.5816C44.5677 21.792 44.8333 21.8813 44.8886 22.2234C44.6229 22.6101 44.6017 23.1754 44.4572 23.6408C43.7708 25.787 44.0364 28.4326 44.9991 30.0158C45.3093 30.4918 46.0276 31.533 46.9923 31.1335C47.8444 30.7914 47.6574 29.7161 47.8997 28.7641C47.9549 28.5325 47.9209 28.388 48.0336 28.2329V28.2775C48.3098 28.8088 48.5755 29.3188 48.8198 29.85C49.3957 30.7808 50.4242 31.7434 51.2763 32.3851C51.7311 32.7273 52.0838 33.3159 52.6491 33.5241V33.4689H52.6044C52.4833 33.3031 52.3282 33.2245 52.1731 33.0928C51.8142 32.7373 51.4812 32.3566 51.1764 31.9538C50.3902 30.8913 49.6826 29.7183 49.0621 28.5113C48.7632 27.9149 48.4902 27.3059 48.2439 26.6859C48.1334 26.4649 48.1334 26.1206 47.9443 26.0101C47.6574 26.4203 47.2367 26.773 47.0369 27.2936C46.6714 28.1011 46.6374 29.1084 46.4951 30.1496C46.4292 30.1709 46.4611 30.1496 46.4292 30.1943C45.8215 30.0391 45.6111 29.4186 45.3879 28.8874C44.8121 27.538 44.7228 25.379 45.2116 23.8299C45.3454 23.4304 45.9086 22.1809 45.6876 21.8048C45.5664 21.4393 45.1903 21.2289 44.9906 20.942C44.7356 20.5871 44.4806 20.1345 44.3042 19.735C43.8495 18.6725 43.6285 17.4995 43.1312 16.437C42.9102 15.9504 42.5107 15.4404 42.1898 14.9878C41.8243 14.4778 41.4269 14.1144 41.1486 13.5151C41.0487 13.3048 40.9169 12.9626 41.0721 12.7395C41.1061 12.5844 41.1826 12.5291 41.3377 12.4845C41.5821 12.2741 42.2897 12.5398 42.5341 12.6609C43.2311 12.9371 43.8176 13.2028 44.4041 13.6023C44.6697 13.7914 44.9566 14.1441 45.3008 14.244H45.7003C46.3081 14.3779 46.9838 14.278 47.5491 14.4544C48.5563 14.7753 49.4637 15.2406 50.2818 15.7485C52.7838 17.3546 54.8184 19.5915 56.1808 22.234C56.4124 22.6654 56.5123 23.0649 56.7227 23.5175C57.1095 24.4589 57.6088 25.3981 58.0062 26.2949C58.4036 27.1916 58.7818 28.099 59.3556 28.8406C59.6424 29.2401 60.7729 29.4484 61.2914 29.6481C61.6676 29.8245 62.2541 29.9796 62.5856 30.1794C63.2379 30.5789 63.8797 31.0315 64.4896 31.4735C64.7998 31.6839 65.7412 32.1599 65.7964 32.536L65.7986 32.5403Z" fill="white"/>
</g>
<defs>
<clipPath id="clip0_247_827">
<rect width="68" height="68" fill="white"/>
</clipPath>
</defs>
</svg>
