<svg width="69" height="70" viewBox="0 0 69 70" fill="none" xmlns="http://www.w3.org/2000/svg">
<path d="M68.3558 34.7568C68.1896 15.7049 52.8318 0.391007 34.0575 0.554848C15.2832 0.718688 0.192175 16.2983 0.358439 35.3502C0.524702 54.4021 15.8825 69.7161 34.6596 69.5522C40.4183 69.502 45.8268 67.9942 50.5595 65.3883C52.3411 66.3906 54.3993 66.9591 56.5923 66.94C63.2431 66.8819 68.589 61.4732 68.5313 54.861C68.5076 52.1413 67.5736 49.6424 66.0177 47.6462C67.5614 43.6565 68.3955 39.3049 68.3558 34.7568ZM7.16088 35.3053C7.02419 19.6429 19.1198 6.84082 34.177 6.70941C49.2341 6.57801 61.5514 19.167 61.688 34.8294C61.7149 37.9055 61.2661 40.8679 60.4182 43.647C59.1206 43.2014 57.7572 42.981 56.3862 42.995C49.7355 43.053 44.3896 48.4618 44.4473 55.074C44.4654 57.1439 45.0113 59.0856 45.9554 60.7766C42.4377 62.4913 38.5842 63.3971 34.6748 63.4281C19.6148 63.5567 7.29754 50.9648 7.16088 35.3053ZM56.5629 63.2342C52.2344 63.3324 48.4106 59.6626 48.4325 55.2894C48.3939 50.862 51.971 47.2427 56.423 47.2038C60.7313 47.0943 64.5839 50.784 64.5533 55.1487C64.592 59.576 61.012 63.1954 56.5629 63.2342Z" fill="white"/>
</svg>
