<svg width="68" height="68" viewBox="0 0 68 68" fill="none" xmlns="http://www.w3.org/2000/svg">
<path d="M48.8515 0C46.1305 0.0199675 43.4245 0.40461 40.8057 1.14365L40.6203 1.19929C38.9706 0.916787 37.3018 0.760755 35.6284 0.732555C32.1882 0.673827 29.2301 1.48366 26.8501 2.8344C24.501 2.04312 19.6297 0.680008 14.4956 0.952012C10.9194 1.14056 7.0186 2.19457 4.12856 5.1557C1.2447 8.11683 -0.279133 12.6976 0.0423259 18.9321C0.128872 20.6537 0.632697 23.4572 1.47343 27.0922C2.30799 30.724 3.48873 34.9741 4.95693 38.8532C6.42513 42.7354 8.03552 46.222 10.5515 48.5897C11.8065 49.7766 13.5343 50.775 15.5712 50.6915C17.0024 50.6359 18.2975 50.027 19.4133 49.1275C19.9573 49.823 20.5384 50.1259 21.067 50.4072C21.7315 50.7595 22.3806 51.0006 23.0513 51.1614C24.9089 51.6368 26.8433 51.7325 28.7387 51.4426C29.564 51.3097 30.4325 51.0501 31.298 50.6792C31.3289 51.6126 31.366 52.5276 31.4062 53.4549C31.5236 56.3913 31.6009 59.102 32.5096 61.479C32.6549 61.8684 33.0537 63.8683 34.6331 65.6332C36.2095 67.4012 39.3005 68.5016 42.818 67.7721C45.3 67.2559 48.4589 66.3256 50.5546 63.4324C52.6255 60.5702 53.5621 56.4623 53.7475 49.8044C53.7939 49.4459 53.8495 49.1399 53.9083 48.8524L54.4028 48.8957H54.4585C57.1074 49.0132 59.982 48.6484 62.3837 47.5666C64.5102 46.6084 66.1175 45.644 67.289 43.9286C67.5826 43.5051 67.9041 42.992 67.9906 42.1049C68.0772 41.224 67.5579 39.8392 66.6893 39.2025C64.9491 37.9228 63.858 38.4081 62.6866 38.6461C61.5336 38.8934 60.3591 39.0294 59.1752 39.0572C62.5537 33.543 64.9739 27.6825 66.3555 22.4959C67.1715 19.4359 67.6321 16.6138 67.6692 14.1473C67.7063 11.6807 67.4992 9.49539 65.9753 7.60373C61.2122 1.70002 54.5141 0.0680007 49.3337 0.0123636C49.1729 0.00927268 49.0122 0.00618196 48.8515 0.00927291V0ZM48.7155 1.81439C53.6146 1.76802 59.8769 3.10331 64.3711 8.67629C65.3819 9.92812 65.6817 11.758 65.6477 14.0144C65.6106 16.2677 65.181 18.963 64.3959 21.9179C62.872 27.6423 59.9913 34.3126 55.9328 40.3029C56.0773 40.4021 56.2329 40.4841 56.3965 40.5471C57.2434 40.8871 59.1722 41.1776 63.0266 40.4111C63.994 40.2101 64.705 40.0772 65.4406 40.6212C65.617 40.767 65.7571 40.9518 65.8499 41.161C65.9427 41.3702 65.9856 41.5981 65.9753 41.8267C65.9352 42.1721 65.804 42.5007 65.5951 42.7787C64.8533 43.8636 63.382 44.8929 61.4965 45.7398C59.8305 46.494 57.4381 46.8866 55.3177 46.9113C54.2545 46.9206 53.2746 46.8402 52.4432 46.5899L52.3875 46.5713C52.0661 49.5726 51.3273 55.5042 50.8482 58.2087C50.4619 60.3909 49.788 62.125 48.4991 63.4232C47.2133 64.7214 45.3958 65.5034 42.9478 66.0134C39.9156 66.6439 37.7055 65.9639 36.2806 64.7986C34.8588 63.6395 34.2066 62.0971 33.814 61.1513C33.5451 60.5022 33.406 59.6584 33.27 58.5302C33.1207 57.1794 33.0207 55.8237 32.9702 54.4656C32.8811 52.0836 32.8522 49.6997 32.8836 47.3162C31.6164 48.4413 30.04 49.1893 28.3492 49.4706C26.3401 49.8013 24.5412 49.4768 23.4686 49.2172C22.9427 49.0878 22.4342 48.8959 21.9541 48.6453C21.4533 48.3888 20.9804 48.0982 20.6651 47.5233C20.4794 47.1952 20.42 46.8104 20.4982 46.4415C20.5992 46.0666 20.8235 45.7367 21.135 45.5049C21.7161 45.0475 22.4795 44.794 23.6324 44.5591C25.7343 44.1418 26.4668 43.8544 26.9119 43.5113C27.2921 43.2176 27.7218 42.6242 28.4821 41.7494C28.4784 41.7114 28.4753 41.6732 28.4729 41.6351C27.117 41.5982 25.7876 41.2503 24.5875 40.6181C24.1517 41.0663 21.9139 43.3629 19.1846 46.5466C18.0378 47.8788 16.7705 48.6422 15.4322 48.6979C14.0938 48.7535 12.8852 48.0982 11.859 47.1339C9.80354 45.1989 8.16534 41.87 6.73732 38.1083C5.31548 34.3435 4.15329 30.1522 3.33109 26.5822C2.50272 23.0121 2.01435 20.1344 1.94635 18.7466C1.63725 12.846 3.05909 8.87102 5.50094 6.36426C7.94279 3.8575 11.2872 2.90858 14.5512 2.72622C20.4055 2.39858 25.9661 4.37987 27.0912 4.80642C29.258 3.37841 32.0491 2.48821 35.5388 2.54385C37.1928 2.56647 38.8392 2.77382 40.4472 3.16204L40.5059 3.13731C41.2138 2.89622 41.9339 2.69222 42.6634 2.53149C44.6491 2.08239 46.6767 1.8441 48.7124 1.82057L48.7155 1.81439ZM49.1575 3.71223H48.734C47.0617 3.73479 45.3953 3.91696 43.7576 4.25624C47.0086 5.67192 49.8649 7.85975 52.0784 10.6298C53.4189 12.2873 54.5313 14.1169 55.3857 16.0698C55.7072 16.8178 55.9236 17.4515 56.0441 17.9399C56.1059 18.1871 56.1492 18.3942 56.1616 18.6106C56.1735 18.7475 56.162 18.8855 56.1276 19.0186L56.109 19.0557C56.1987 21.5377 55.565 23.2192 55.4877 25.5869C55.429 27.3054 55.8803 29.3238 55.9916 31.5215C56.0967 33.5924 55.8401 35.8643 54.4554 38.0959C54.5728 38.2319 54.6779 38.3679 54.7892 38.5039C58.452 32.9093 61.0947 26.7151 62.5011 21.4388C63.2522 18.5951 63.654 16.0204 63.688 13.9804C63.7189 11.9403 63.3264 10.4598 62.8257 9.84467C58.9063 4.98261 53.6054 3.74623 49.1575 3.71223ZM35.1709 4.4386C31.7184 4.44478 29.2394 5.45861 27.3632 6.97318C25.4252 8.54029 24.127 10.6823 23.2739 12.88C22.4481 15.0762 21.9432 17.38 21.7748 19.7202L21.815 19.6986C22.8566 19.1299 24.2259 18.5642 25.691 18.2366C27.1592 17.909 28.7387 17.807 30.1698 18.3448C31.6009 18.8857 32.7847 20.1499 33.2144 22.0725C35.2699 31.302 32.5746 34.733 31.5793 37.3201C31.2026 38.2582 30.8796 39.2169 30.6118 40.1916C30.7385 40.1607 30.8653 40.1298 30.9889 40.1174C31.5319 40.088 32.0736 40.1943 32.5653 40.4265C33.5667 40.8283 34.2529 41.6691 34.6239 42.6334C34.7197 42.8869 34.7908 43.1589 34.8309 43.4371C34.8742 43.5545 34.8928 43.6751 34.8897 43.7987C34.7787 47.3279 34.7911 50.86 34.9268 54.3883C34.9948 55.9152 35.0937 57.2567 35.2204 58.3169C35.344 59.374 35.5233 60.1777 35.6377 60.4497C36.0086 61.3584 36.5557 62.5453 37.5448 63.3521C38.5339 64.1557 39.9465 64.6935 42.5336 64.1557C44.7776 63.689 46.1624 63.043 47.0896 62.1064C48.0107 61.176 48.564 59.8809 48.9164 57.8935C49.4449 54.9169 50.5082 46.29 50.635 44.6642C50.5793 43.4433 50.7648 42.5005 51.1666 41.7834C51.5839 41.0478 52.2268 40.5965 52.7801 40.3523C53.0583 40.2287 53.3179 40.1483 53.5312 40.0896C53.3048 39.7745 53.0677 39.4673 52.8203 39.1685C52.0233 38.2317 51.3683 37.183 50.876 36.0559C50.641 35.5913 50.3905 35.1346 50.1249 34.6866C49.7386 34.0066 49.2471 33.1566 48.734 32.2015C47.7047 30.2882 46.5858 27.97 46.0047 25.7105C45.4267 23.4572 45.3402 21.1235 46.8238 19.4761C48.1406 18.014 50.4464 17.4082 53.9114 17.7482C53.8094 17.4515 53.7475 17.2042 53.5745 16.8086C52.7884 15.0149 51.7666 13.334 50.536 11.8105C47.5996 8.16938 42.8489 4.55915 35.5048 4.44169L35.1709 4.4386ZM15.7722 4.58388C15.4012 4.58388 15.0303 4.59624 14.6594 4.61479C11.7107 4.77861 8.92262 5.61007 6.92896 7.66246C4.92911 9.71176 3.61546 13.0747 3.89983 18.6446C3.95856 19.6955 4.43147 22.6505 5.2413 26.1556C6.05113 29.6669 7.20096 33.7933 8.57952 37.4376C9.95809 41.0849 11.6334 44.2593 13.2221 45.7615C14.0227 46.5126 14.7181 46.8155 15.3487 46.7908C15.9823 46.7599 16.7427 46.4075 17.6762 45.3226C19.3762 43.3333 21.139 41.3984 22.9617 39.5209C21.6744 38.4403 20.6831 37.0501 20.0809 35.481C19.4867 33.9259 19.3056 32.2432 19.5555 30.5973C19.8553 28.5016 19.8955 26.542 19.8615 24.9965C19.8244 23.4881 19.7131 22.4866 19.7131 21.8592V21.7726C19.7103 18.506 20.2956 15.2655 21.441 12.2062C22.257 10.0981 23.4748 7.9561 25.3016 6.22208C23.5088 5.65025 20.3251 4.77861 16.8787 4.61479C16.5081 4.59546 16.1371 4.58515 15.766 4.58388H15.7722ZM51.9795 19.5502C49.9982 19.575 48.8855 20.0726 48.3013 20.7217C47.4729 21.6428 47.3956 23.2563 47.9087 25.2469C48.4188 27.2374 49.4759 29.466 50.4711 31.3144C50.9657 32.2417 51.4479 33.0762 51.8373 33.7501C52.2299 34.4301 52.5173 34.9123 52.6904 35.3264C52.8512 35.7035 53.0304 36.0374 53.2097 36.3495C53.9763 34.7763 54.1154 33.2339 54.035 31.6235C53.933 29.6329 53.457 27.596 53.5281 25.5343C53.6054 23.1234 54.0968 21.5501 54.1401 19.6862C53.4234 19.5962 52.7018 19.5508 51.9795 19.5502ZM27.9319 19.8748C27.3265 19.8804 26.7234 19.9509 26.133 20.085C24.9594 20.3613 23.8268 20.7894 22.7639 21.3584C22.4084 21.5439 22.0653 21.7603 21.7439 22.0045L21.6821 22.0601C21.7006 22.4743 21.7841 23.4788 21.8211 24.9532C21.8521 26.5698 21.815 28.6314 21.4935 30.8569C20.7949 35.7035 24.4175 39.7156 28.6769 39.7218C28.9241 38.7265 29.3352 37.7188 29.7432 36.6556C30.9302 33.5553 33.2638 31.2958 31.298 22.4712C30.9765 21.0277 30.3398 20.4435 29.462 20.1128C28.9699 19.9441 28.452 19.8635 27.9319 19.8748ZM51.0522 20.4528H51.2006C51.3922 20.459 51.5715 20.4806 51.7261 20.5146C51.8683 20.5429 52.0043 20.5963 52.1279 20.6723C52.1838 20.7059 52.2322 20.7507 52.2699 20.8039C52.3077 20.857 52.3341 20.9175 52.3473 20.9814V21.0061C52.3522 21.1416 52.3156 21.2753 52.2423 21.3894C52.1555 21.5449 52.0473 21.6874 51.9208 21.8128C51.6218 22.1314 51.2266 22.3431 50.7957 22.4156C50.3736 22.4655 49.9477 22.3613 49.5964 22.1219C49.4542 22.0295 49.3262 21.9171 49.2162 21.7881C49.1218 21.6885 49.0575 21.5642 49.0308 21.4295C49.0242 21.3635 49.0319 21.2967 49.0532 21.2338C49.0745 21.1709 49.109 21.1133 49.1544 21.0648C49.2514 20.959 49.3679 20.873 49.4975 20.8114C49.9858 20.5829 50.5164 20.4587 51.0553 20.4466L51.0522 20.4528ZM28.2163 20.9288C28.3709 20.9288 28.5347 20.9443 28.7016 20.9659C29.1467 21.0277 29.5454 21.1421 29.8483 21.3121C29.9967 21.3894 30.1265 21.4883 30.2378 21.6119C30.2956 21.6778 30.3397 21.7545 30.3676 21.8375C30.3953 21.9201 30.4048 22.0076 30.3954 22.0941C30.3666 22.2578 30.2903 22.4093 30.176 22.5299C30.0561 22.6736 29.9155 22.7987 29.7587 22.9008C29.375 23.1625 28.9092 23.2757 28.4481 23.2192C27.98 23.145 27.5495 22.9179 27.2241 22.5732C27.087 22.4361 26.9704 22.2799 26.8779 22.1095C26.7817 21.9613 26.7391 21.7846 26.7574 21.6088C26.8007 21.2997 27.0634 21.1452 27.3138 21.0524C27.6038 20.9634 27.9071 20.9257 28.2101 20.9412L28.2163 20.9288ZM54.6748 41.7371H54.6656C54.2359 41.8916 53.8835 41.9534 53.5837 42.0771C53.2855 42.1886 53.0382 42.4051 52.8883 42.686C52.7028 43.0105 52.5483 43.5885 52.5946 44.5715C52.7275 44.6598 52.8736 44.7266 53.0274 44.7693C53.525 44.9177 54.3626 45.0166 55.2992 45.0011C57.16 44.9795 59.4534 44.5591 60.6713 44.0089C61.6696 43.5576 62.5969 42.9704 63.4253 42.2656C59.3545 43.0816 57.0579 42.8653 55.6454 42.2996C55.296 42.1595 54.969 41.9689 54.6748 41.734V41.7371ZM31.2207 42.0029H31.1589C31.0044 42.0153 30.7787 42.0647 30.346 42.5345C29.326 43.6411 28.9736 44.3335 28.1329 44.9826C27.2983 45.6317 26.2072 45.9748 24.0312 46.4075C23.3419 46.5435 22.9493 46.6949 22.6835 46.8155C22.7701 46.8835 22.7608 46.902 22.8875 46.967C23.2059 47.137 23.617 47.2853 23.9446 47.3688C24.8812 47.5944 26.4174 47.8602 28.0216 47.5944C29.6227 47.3286 31.2918 46.5837 32.7136 44.6487C32.9609 44.3149 32.9857 43.8204 32.7847 43.2887C32.5776 42.7633 32.1325 42.3058 31.8173 42.176C31.6286 42.089 31.4272 42.0326 31.2207 42.0091V42.0029Z" fill="white"/>
</svg>
