<svg width="68" height="61" viewBox="0 0 68 61" fill="none" xmlns="http://www.w3.org/2000/svg">
<path d="M34 24.439C37.2577 24.439 39.9144 27.0957 39.9144 30.4167C39.9144 33.5795 37.2577 36.2678 34 36.2678C30.7423 36.2678 28.0856 33.5795 28.0856 30.4167C28.0856 27.0957 30.7423 24.439 34 24.439ZM19.3563 55.719C21.3488 56.9208 25.7135 55.0864 30.7423 50.3422C29.0977 48.4762 27.4847 46.452 25.9665 44.3329C23.4178 44.089 20.8839 43.709 18.3758 43.1943C16.7628 49.9627 17.3637 54.612 19.3563 55.719ZM21.6019 37.5646L20.6847 35.9515C20.3367 36.8688 19.9888 37.786 19.7674 38.6715C20.6214 38.8613 21.5702 39.0195 22.5507 39.1776L21.6019 37.5646ZM42.2865 35.1608L44.8484 30.4167L42.2865 25.6725C41.3377 23.9962 40.3256 22.5097 39.4084 21.0232C37.7005 20.9283 35.8977 20.9283 34 20.9283C32.1023 20.9283 30.2995 20.9283 28.5916 21.0232C27.6744 22.5097 26.6623 23.9962 25.7135 25.6725L23.1516 30.4167L25.7135 35.1608C26.6623 36.8371 27.6744 38.3236 28.5916 39.8102C30.2995 39.905 32.1023 39.905 34 39.905C35.8977 39.905 37.7005 39.905 39.4084 39.8102C40.3256 38.3236 41.3377 36.8371 42.2865 35.1608ZM34 13.9069C33.3991 14.6027 32.7665 15.3302 32.134 16.1841H35.866C35.2335 15.3302 34.6009 14.6027 34 13.9069ZM34 46.9264C34.6009 46.2306 35.2335 45.5032 35.866 44.6492H32.134C32.7665 45.5032 33.3991 46.2306 34 46.9264ZM48.6121 5.11434C46.6512 3.91248 42.2865 5.74689 37.2577 10.4911C38.9023 12.3571 40.5153 14.3813 42.0335 16.5004C44.627 16.7534 47.1888 17.1329 49.6242 17.639C51.2372 10.8706 50.6363 6.22131 48.6121 5.11434ZM46.3981 23.2688L47.3153 24.8818C47.6633 23.9646 48.0112 23.0474 48.2326 22.1618C47.3786 21.972 46.4298 21.8139 45.4493 21.6557L46.3981 23.2688ZM50.9842 0.971081C55.6335 3.62783 56.1395 10.6176 54.1786 18.7776C62.2121 21.1497 68 25.0715 68 30.4167C68 35.7618 62.2121 39.6836 54.1786 42.0557C56.1395 50.2157 55.6335 57.2055 50.9842 59.8622C46.3665 62.519 40.0726 59.4827 34 53.6948C27.9274 59.4827 21.6335 62.519 16.9842 59.8622C12.3665 57.2055 11.8605 50.2157 13.8214 42.0557C5.78791 39.6836 0 35.7618 0 30.4167C0 25.0715 5.78791 21.1497 13.8214 18.7776C11.8605 10.6176 12.3665 3.62783 16.9842 0.971081C21.6335 -1.68566 27.9274 1.35062 34 7.13852C40.0726 1.35062 46.3665 -1.68566 50.9842 0.971081ZM50.067 30.4167C51.1423 32.7888 52.0912 35.1609 52.8819 37.5646C59.5237 35.572 63.2558 32.7255 63.2558 30.4167C63.2558 28.1078 59.5237 25.2613 52.8819 23.2688C52.0912 25.6725 51.1423 28.0446 50.067 30.4167ZM17.933 30.4167C16.8577 28.0446 15.9088 25.6725 15.1181 23.2688C8.47628 25.2613 4.74419 28.1078 4.74419 30.4167C4.74419 32.7255 8.47628 35.572 15.1181 37.5646C15.9088 35.1609 16.8577 32.7888 17.933 30.4167ZM46.3981 37.5646L45.4493 39.1776C46.4298 39.0195 47.3786 38.8613 48.2326 38.6715C48.0112 37.786 47.6633 36.8688 47.3153 35.9515L46.3981 37.5646ZM37.2577 50.3422C42.2865 55.0864 46.6512 56.9208 48.6121 55.719C50.6363 54.612 51.2372 49.9627 49.6242 43.1943C47.1888 43.7004 44.627 44.0799 42.0335 44.3329C40.5153 46.452 38.9023 48.4762 37.2577 50.3422ZM21.6019 23.2688L22.5507 21.6557C21.5702 21.8139 20.6214 21.972 19.7674 22.1618C19.9888 23.0474 20.3367 23.9646 20.6847 24.8818L21.6019 23.2688ZM30.7423 10.4911C25.7135 5.74689 21.3488 3.91248 19.3563 5.11434C17.3637 6.22131 16.7628 10.8706 18.3758 17.639C20.8839 17.1244 23.4178 16.7443 25.9665 16.5004C27.4847 14.3813 29.0977 12.3571 30.7423 10.4911Z" fill="white"/>
</svg>
