<svg width="68" height="61" viewBox="0 0 68 61" fill="none" xmlns="http://www.w3.org/2000/svg">
<path d="M67.1316 26.8365L53.7305 3.66351C52.5689 1.65339 49.7158 0 47.3841 0H20.6102C18.287 0 15.4226 1.65339 14.2638 3.66351L0.871214 26.8365C-0.290405 28.8466 -0.290405 32.1392 0.871214 34.1522L14.2582 57.3365C15.4198 59.3466 18.2728 61 20.6046 61H47.3926C49.7158 61 52.5661 59.3466 53.739 57.3365L67.1288 34.1493C68.2904 32.1392 68.2904 28.8466 67.1288 26.8365H67.1316ZM31.1016 12.8195C31.1016 11.2991 32.3426 10.0591 33.8612 10.0591C35.3798 10.0591 36.6236 11.2991 36.6236 12.8195V29.2996C36.5786 30.0004 36.2683 30.6578 35.7557 31.1382C35.2431 31.6186 34.5668 31.886 33.864 31.886C33.1613 31.886 32.4849 31.6186 31.9723 31.1382C31.4597 30.6578 31.1494 30.0004 31.1045 29.2996L31.1016 12.8195ZM33.8612 48.0107C28.8977 48.0039 24.1395 46.0302 20.6303 42.5225C17.121 39.0148 15.1474 34.2595 15.1421 29.2996C15.1488 26.3823 15.8351 23.5066 17.1466 20.9002C18.4581 18.2938 20.3589 16.0284 22.6983 14.2832C22.9574 14.0903 23.252 13.9504 23.5653 13.8717C23.8786 13.7929 24.2044 13.7767 24.524 13.824C24.8436 13.8714 25.1507 13.9813 25.4276 14.1476C25.7045 14.3138 25.9459 14.5331 26.1378 14.7928C26.3307 15.0512 26.4707 15.3452 26.5497 15.6577C26.6288 15.9703 26.6453 16.2954 26.5985 16.6144C26.5516 16.9334 26.4423 17.24 26.2767 17.5167C26.1111 17.7934 25.8926 18.0348 25.6335 18.227C22.7952 20.4459 20.937 23.6852 20.4552 27.254C19.9734 30.8227 20.9063 34.4383 23.0547 37.3295C25.2031 40.2206 28.397 42.1585 31.9551 42.7295C35.5132 43.3006 39.1538 42.4598 42.1002 40.3864C43.8306 39.1012 45.2358 37.4292 46.2036 35.504C47.1713 33.5788 47.6746 31.454 47.6731 29.2996C47.6674 27.1372 47.1556 25.0061 46.1786 23.0766C45.2016 21.1471 43.7865 19.4727 42.0463 18.1873C41.5226 17.7994 41.1741 17.2199 41.0769 16.5758C40.9797 15.9316 41.1419 15.2753 41.5279 14.7503C41.9161 14.227 42.4959 13.8787 43.1406 13.7816C43.7852 13.6845 44.442 13.8465 44.9674 14.2322C47.3253 15.9755 49.242 18.2463 50.5639 20.8627C51.8859 23.4792 52.5764 26.3686 52.5802 29.2996C52.5765 34.2602 50.6028 39.0165 47.0926 42.5242C43.5823 46.0318 38.8225 48.0041 33.8583 48.0078L33.8612 48.0107Z" fill="white"/>
</svg>
