<svg width="68" height="68" viewBox="0 0 68 68" fill="none" xmlns="http://www.w3.org/2000/svg">
<g clip-path="url(#clip0_247_822)">
<path d="M34 67.9542C52.7777 67.9542 68 52.7911 68 34.0864C68 15.3818 52.7777 0.21875 34 0.21875C15.2223 0.21875 0 15.3818 0 34.0864C0 52.7911 15.2223 67.9542 34 67.9542Z" fill="white"/>
<path d="M48.7969 12.7333C45.3475 12.8531 42.3369 14.7468 40.0958 17.3663C37.6143 20.2384 35.9635 23.645 34.774 27.1223C32.6463 25.3852 31.0048 23.1365 27.5912 22.1559C24.9528 21.4013 22.1815 21.713 19.6331 23.6043C18.4258 24.5025 17.5942 25.8604 17.1987 27.1368C16.1747 30.454 18.2752 33.4061 19.2294 34.466L21.3153 36.6928C21.7454 37.1294 22.781 38.2684 22.2748 39.9015C21.7276 41.6769 19.5787 42.8266 17.3745 42.1492C16.3901 41.8502 14.9759 41.1197 15.2925 40.091C15.4235 39.6703 15.7258 39.3554 15.8878 38.9916C16.0365 38.6791 16.1075 38.4447 16.1526 38.3071C16.5553 36.9974 16.0052 35.2934 14.5969 34.8608C13.2831 34.4597 11.9388 34.7774 11.4176 36.4626C10.8266 38.3769 11.7462 41.8513 16.6725 43.3642C22.4442 45.1306 27.3267 42.0002 28.0192 37.9173C28.4553 35.3601 27.2961 33.4603 25.1725 31.0168L23.4422 29.1107C22.394 28.0677 22.0341 26.2899 23.1189 24.9235C24.0343 23.771 25.3379 23.2791 27.473 23.8575C30.5896 24.7005 31.9788 26.8545 34.2969 28.5918C33.3399 31.719 32.7143 34.8579 32.148 37.6726L31.803 39.7711C30.146 48.4288 28.8811 53.1827 25.594 55.9119C24.9318 56.3811 23.9851 57.0833 22.5582 57.1322C21.8102 57.1552 21.5685 56.6427 21.5581 56.4194C21.5403 55.8963 21.9828 55.6566 22.2769 55.4211C22.7162 55.1825 23.3805 54.7866 23.3354 53.5184C23.2876 52.0198 22.0413 50.7204 20.2398 50.7799C18.8904 50.8257 16.8337 52.0907 16.911 54.4061C16.9915 56.7978 19.2294 58.5901 22.6033 58.4766C24.4069 58.415 28.4343 57.6836 32.4036 52.9837C37.0233 47.5961 38.3153 41.4197 39.2872 36.8992L40.372 30.9311C40.9748 31.003 41.6192 31.0509 42.3201 31.0676C48.0738 31.1885 50.9519 28.2198 50.9947 26.0605C51.0231 24.7536 50.1338 23.4677 48.8888 23.4968C47.9976 23.522 46.878 24.1128 46.6092 25.3405C46.3468 26.5449 48.4401 27.6319 46.8039 28.6876C45.6415 29.4369 43.5577 29.965 40.6231 29.5359L41.1567 26.5981C42.2458 21.0271 43.589 14.1745 48.6848 14.0078C49.0561 13.989 50.4151 14.0245 50.4467 14.9196C50.456 15.2186 50.3816 15.2948 50.0302 15.9793C49.6724 16.5129 49.5374 16.9672 49.5542 17.4893C49.6033 18.9117 50.6892 19.8465 52.2596 19.7902C54.3623 19.7224 54.9671 17.6832 54.9325 16.636C54.8475 14.1753 52.2442 12.6208 48.7969 12.7333Z" fill="black"/>
</g>
<defs>
<clipPath id="clip0_247_822">
<rect width="68" height="68" fill="white"/>
</clipPath>
</defs>
</svg>
