<svg width="69" height="69" viewBox="0 0 69 69" fill="none" xmlns="http://www.w3.org/2000/svg">
<path d="M33.9987 0.285085C15.2654 0.448568 0.133219 15.8472 0.296702 34.5805C0.460185 53.3138 15.8588 68.446 34.5921 68.2825C53.3254 68.119 68.4576 52.7204 68.2941 33.9871C68.1306 15.2538 52.732 0.121602 33.9987 0.285085ZM3.73057 34.5505C3.692 30.1307 4.60717 25.9065 6.27388 22.0839L21.2079 61.9051C10.965 57.0303 3.8362 46.6541 3.73057 34.5505ZM34.5621 64.8486C31.5703 64.8747 28.6765 64.458 25.9155 63.666L34.8625 36.9309L44.4708 62.5861C44.54 62.7215 44.6094 62.8909 44.6783 62.9923C41.5265 64.1758 38.132 64.8175 34.5621 64.8486ZM38.386 19.8995C40.2211 19.7815 41.8852 19.563 41.8852 19.563C43.5154 19.3448 43.3243 16.9323 41.6593 17.0489C41.6593 17.0489 36.6987 17.4662 33.5029 17.4941C30.511 17.5202 25.4419 17.1904 25.4419 17.1904C23.8094 17.1366 23.6273 19.6543 25.2942 19.7418C25.2942 19.7418 26.8599 19.9321 28.4927 20.0199L33.3665 33.0339L26.8438 53.1515L15.4369 20.0998C17.2722 20.0158 18.9364 19.7973 18.9364 19.7973C20.5666 19.579 20.3755 17.1666 18.7105 17.2831C18.7105 17.2831 13.7499 17.7005 10.554 17.7283C9.97605 17.7334 9.29608 17.7393 8.58181 17.7115C14.0172 9.3678 23.3531 3.81212 34.0287 3.71895C41.9844 3.64953 49.2525 6.61221 54.7359 11.5626C54.5999 11.5637 54.4636 11.5309 54.3276 11.5321C51.3357 11.5582 49.2167 14.1948 49.2413 17.0167C49.2633 19.5326 50.7439 21.6618 52.2958 24.1643C53.4695 26.1942 54.8523 28.8002 54.8853 32.574C54.9081 35.1919 53.9146 38.2267 52.6597 42.4878L49.6888 52.7142L38.386 19.8995ZM60.9925 19.3963C64.8723 26.3518 65.8833 34.5473 63.8101 42.2372C61.737 49.9271 56.7436 56.5038 49.8934 60.5667L59.0074 33.4901C60.7034 29.1231 61.2508 25.6162 61.2238 22.5224C61.214 21.4004 61.1368 20.347 60.9925 19.3963Z" fill="white"/>
</svg>
