<svg width="160" height="62" viewBox="0 0 160 62" fill="none" xmlns="http://www.w3.org/2000/svg">
<g clip-path="url(#clip0_253_103)">
<path d="M8.7184 2.3723C13.0811 2.33423 17.565 2.2951 22.0506 2.25595C23.3451 2.24466 24.6461 2.34393 25.9326 2.24021C28.6428 2.02069 30.4198 4.86528 30.3611 6.85172C30.3155 8.459 29.9154 10.0549 29.6798 11.6565C29.1365 15.2795 26.7315 17.1341 22.9005 17.5973C25.9661 20.3817 26.1008 24.2182 26.8016 27.8538C27.3073 30.4774 27.8256 33.1044 28.4558 35.6979C28.8065 37.1457 29.5014 38.4455 31.2149 39.2068C29.0114 39.4776 26.7829 38.965 24.9171 37.7582C20.9176 35.274 18.9281 31.4882 18.1329 26.9755C17.646 24.2249 17.244 21.4571 16.795 18.7007C16.629 17.6992 16.1842 17.4982 14.5419 17.6503C14.2332 19.1529 13.9899 20.6966 13.5871 22.1927C13.1843 23.6889 12.7239 25.2163 12.0835 26.6366C10.4285 30.3 7.29816 31.4899 3.61393 29.9188C2.52498 29.4531 1.50496 28.8055 0.240641 28.1346C4.06172 27.5681 4.73058 24.6495 5.34603 21.8276C6.50048 16.538 7.51905 11.2188 8.53039 5.89965C8.73224 4.78794 8.65704 3.62969 8.7184 2.3723ZM15.4554 12.9251C17.0446 12.9112 18.5635 12.9161 20.0821 12.8847C20.7383 12.8681 21.1144 12.4531 21.2481 11.8208C21.5189 10.529 21.8331 9.24216 22.0369 7.94C22.1396 7.27894 21.8455 6.72835 21.0553 6.72074C19.7606 6.71027 18.4642 6.71433 17.1719 6.77095C17.0396 6.79401 16.915 6.84942 16.8091 6.93227C16.7032 7.01513 16.6193 7.12287 16.5649 7.24598C16.1599 9.11393 15.8237 11.0012 15.4554 12.9251Z" fill="white"/>
<path d="M54.7471 38.2978C55.6766 37.6821 56.7766 37.1375 57.6357 36.3356C58.535 35.5065 59.2925 34.5349 59.878 33.4596C62.0231 29.3874 64.0519 25.2527 66.1352 21.1466C68.9508 15.5941 71.7701 10.0439 74.593 4.49616C75.1903 3.31934 75.09 3.01915 73.9731 2.24904C73.8494 2.16306 73.7239 2.08254 73.4875 1.92501L84.529 1.82865C84.8654 3.71008 85.2168 5.64035 85.5537 7.57437C86.4942 12.9944 87.4474 18.4106 88.3536 23.8346C88.6454 25.5731 88.8451 27.3233 89.9058 28.8992L79.9617 28.986C80.8806 26.7454 80.1711 24.5897 79.8592 22.4161C79.7803 21.8727 79.6085 21.6583 79.0173 21.6689C76.2152 21.7224 73.4128 21.7523 70.6118 21.7278C69.9988 21.7223 69.8482 22.0754 69.6492 22.4798C67.922 25.9498 66.2548 29.4647 64.4639 32.8936C63.1265 35.4443 61.3519 37.6362 58.4506 38.5556C57.1036 38.9755 56.0022 39.1483 54.7471 38.2978ZM79.0404 17.2634C78.4831 13.9094 77.9429 10.6442 77.3647 7.16703L72.2368 17.3228L79.0404 17.2634Z" fill="white"/>
<path d="M36.8379 27.5759C36.6369 28.1652 36.4959 28.5764 36.3495 29.002L28.7252 29.0686C29.3861 26.6887 30.1102 24.3029 30.7075 21.8856C31.7938 17.4908 32.8782 13.0905 33.8087 8.6589C34.1161 7.20531 34.0679 5.62424 33.95 4.12358C33.8615 2.89652 33.1065 1.95458 31.871 1.47387C34.1486 1.19646 36.4564 0.639481 38.6247 1.71237C40.6513 2.71576 41.5414 4.42913 41.3091 7.23685C41.1852 8.78677 40.8334 10.3242 40.5983 11.7644C41.1217 11.6547 41.7328 11.4408 42.3492 11.4191C43.976 11.365 45.604 11.4378 47.2308 11.3765C47.8438 11.3437 48.4563 11.4514 49.0217 11.6912C49.5872 11.931 50.0909 12.2967 50.4946 12.7606C50.8983 13.2246 51.1915 13.7746 51.3519 14.3689C51.5124 14.9633 51.5359 15.5865 51.4207 16.1914C50.8119 19.5719 49.9063 22.9151 48.946 26.2134C48.4106 28.0589 46.8356 28.8706 44.9827 28.9303C42.8786 28.9958 40.7701 28.9671 38.6649 28.902C37.8962 28.8833 37.092 28.7217 36.8379 27.5759ZM39.6834 25.449C41.7645 25.4309 41.7681 25.4309 42.3996 23.8275C42.4746 23.6 42.533 23.3674 42.5743 23.1314C43.1148 20.8294 43.6546 18.5274 44.1938 16.2254C44.368 15.4658 44.0238 14.9773 43.2514 14.9442C42.4393 14.9095 41.6238 14.9076 40.8121 14.9274C40.145 14.9332 39.7083 15.2399 39.5428 15.9577C38.9938 18.3202 38.4069 20.6831 37.829 23.0458C37.2632 25.336 37.3601 25.4657 39.6834 25.449Z" fill="white"/>
<path d="M141.99 8.46753C143.708 8.45254 145.425 8.43756 147.141 8.42258C148.003 8.40326 148.848 8.66345 149.55 9.16446C150.253 9.66547 150.775 10.3805 151.04 11.2033C151.492 12.5524 151.576 13.9982 151.283 15.3907C150.694 18.3684 150.134 21.3531 149.542 24.329C149.121 26.4419 147.458 28.3372 144.908 28.3249C141.472 28.315 138.049 28.4592 134.621 28.5126C133.842 28.5403 133.062 28.4949 132.291 28.377C130.942 28.1421 130.215 27.1256 129.694 25.9712C128.988 24.4122 129.196 22.7836 129.5 21.1759C130.048 18.2801 130.543 15.3631 131.232 12.5043C131.9 9.7018 133.19 8.85991 136.12 8.57861C137.108 8.48474 138.108 8.51229 139.099 8.49458C140.063 8.4771 141.026 8.47594 141.99 8.46753ZM139.344 24.5068C139.763 24.5032 140.186 24.4868 140.609 24.4958C141.533 24.524 142.086 24.0476 142.254 23.1829C142.853 20.0836 143.428 16.9809 143.981 13.8747C144.134 13.0065 143.71 12.4371 142.831 12.3976C141.752 12.3514 140.671 12.3942 139.599 12.5255C139.27 12.5647 138.879 12.9472 138.71 13.2715C138.492 13.7307 138.346 14.2216 138.28 14.7261C137.762 17.4692 137.285 20.2156 136.788 22.9622C136.616 23.934 136.998 24.4475 137.989 24.506C138.44 24.5401 138.886 24.5108 139.344 24.5068Z" fill="white"/>
<path d="M109.515 28.7244L102.645 28.7843C102.596 28.3767 102.546 27.9763 102.472 27.3658C101.663 28.7984 100.429 28.8599 99.1538 28.8348C97.3454 28.7998 95.538 28.8881 93.7483 28.7223C91.2619 28.4919 89.5022 25.9664 89.9523 23.4578C90.6247 19.7032 91.3496 15.9571 91.9804 12.1956C92.152 11.1458 92.081 10.0528 92.1219 8.94071L100.178 8.8704C99.5323 12.3304 98.8874 15.7819 98.2436 19.225C98.0052 20.4966 97.7379 21.7685 97.4922 23.0402C97.2292 24.4027 97.6349 24.887 99.0162 24.8786C99.6183 24.8734 100.222 24.8681 100.824 24.8628C101.571 24.8563 102.028 24.4424 102.16 23.763C102.978 19.5373 103.786 15.3118 104.548 11.0757C104.672 10.3855 104.554 9.64836 104.547 8.86855L112.554 8.79867C112.299 10.2119 112.062 11.5887 111.801 12.9603C111.031 16.9842 110.2 20.9978 109.51 25.0355C109.312 26.1998 109.504 27.4549 109.515 28.7244Z" fill="white"/>
<path d="M9.65449 61.1533C7.78863 61.1695 5.92097 61.1858 4.04968 61.2022C3.53867 61.2094 3.03229 61.1041 2.56623 60.8937C2.10017 60.6834 1.68577 60.373 1.35224 59.9846C1.0187 59.5962 0.774146 59.1392 0.635804 58.6457C0.497462 58.1522 0.4687 57.6343 0.551544 57.1284C0.800984 55.4613 1.07275 53.7977 1.36686 52.1375C1.74602 50.0031 2.19942 47.8808 2.54963 45.7431C2.94785 43.3058 4.45265 42.3187 6.96312 42.2007C10.54 42.0334 14.1276 42.0692 17.7115 42.0833C20.4238 42.0923 22.1062 44.263 21.609 46.9588C20.9599 50.4847 20.3543 54.0175 19.6925 57.54C19.2467 59.9161 17.859 61.0617 15.4365 61.1082C13.5094 61.145 11.5819 61.1419 9.65092 61.1587L9.65449 61.1533ZM10.2626 58.5254L10.2621 58.4656C10.8045 58.4609 11.3467 58.438 11.8893 58.4514C12.6453 58.4774 13.0654 58.1328 13.2017 57.3862C13.8712 53.7132 14.5733 50.0453 15.2102 46.3672C15.3978 45.2774 14.92 44.8064 13.8079 44.7943C12.7844 44.7851 11.7613 44.823 10.7343 44.8211C9.83015 44.8163 9.2334 45.2223 9.00411 46.0913C8.82887 46.7294 8.73514 47.3849 8.61967 48.0352C8.08527 51.0287 7.56359 54.0294 7.02009 57.0158C6.87862 57.7951 7.15761 58.2714 7.93597 58.3698C8.71433 58.4682 9.48105 58.476 10.2626 58.5254Z" fill="#F32D2F"/>
<path d="M130.652 8.56631C130.446 9.82133 130.291 10.9743 130.039 12.1046C129.999 12.2863 129.52 12.4519 129.238 12.4598C127.701 12.5077 126.164 12.5284 124.627 12.5001C124.036 12.4907 123.784 12.6725 123.677 13.2719C123.117 16.4144 122.499 19.5483 121.935 22.6908C121.716 23.9205 122.294 24.6482 123.541 24.6282C125.201 24.6029 126.86 24.4542 128.56 24.3559C128.348 25.5058 128.105 26.899 127.821 28.2708C127.795 28.3998 127.516 28.5672 127.357 28.5668C124.261 28.5467 121.154 28.6518 118.071 28.4193C115.588 28.2324 113.906 25.6427 114.35 23.0834C114.894 19.9429 115.501 16.8164 116.076 13.6828C116.136 13.3613 116.175 13.0381 116.237 12.6204L113.136 12.6475C113.373 11.4357 113.562 10.3151 113.829 9.21731C113.883 9.00283 114.254 8.75476 114.503 8.72357C115.133 8.66304 115.766 8.65326 116.398 8.69434C116.872 8.71559 117.12 8.55927 117.193 8.06894C117.306 7.26634 117.478 6.47046 117.581 5.66612C117.65 5.12143 117.872 4.81662 118.459 4.77522C120.761 4.61004 123.06 4.42313 125.463 4.2353C125.179 5.7177 124.911 7.11291 124.622 8.61531L130.652 8.56631Z" fill="white"/>
<path d="M110.485 60.2731C108.829 60.2876 107.173 60.302 105.518 60.3165C103.432 60.3347 101.879 58.881 102.101 56.7861C102.404 54.1546 102.846 51.5409 103.423 48.956C103.76 47.3734 105.03 46.6296 106.568 46.5708C110.207 46.4538 113.85 46.3531 117.488 46.4157C119.573 46.4537 120.806 48.4996 120.596 50.355C120.35 52.568 119.912 54.7608 119.473 56.9465C119.007 59.3028 117.862 60.2088 115.45 60.2298C113.795 60.2551 112.139 60.2587 110.485 60.2731ZM110.647 58.1062C111.214 58.0632 111.826 58.1359 112.336 57.941C112.779 57.7739 113.36 57.3571 113.445 56.9574C113.922 54.6934 114.297 52.405 114.651 50.1185C114.772 49.3376 114.258 48.7617 113.478 48.7123C112.64 48.6598 111.797 48.6381 110.959 48.669C109.84 48.7078 109.336 49.1674 109.138 50.29C108.832 51.9775 108.525 53.665 108.261 55.3594C107.868 57.902 108.056 58.0998 110.645 58.1135L110.647 58.1062Z" fill="#F32D2F"/>
<path d="M56.3764 49.2922C56.364 49.229 56.3585 49.1645 56.3603 49.1001C57.1135 46.9335 57.1135 46.9335 59.3897 46.9136C62.6134 46.8855 65.8435 46.9752 69.0586 46.793C71.8345 46.6345 73.2693 49.0196 72.8667 51.3718C72.4985 53.5115 72.0759 55.6426 71.7293 57.7857C71.587 58.672 71.5823 59.5788 71.5027 60.6169C69.796 60.6318 67.9754 60.6604 66.1562 60.64C65.9881 60.6415 65.7703 60.3405 65.6709 60.1328C65.5714 59.9251 65.5688 59.6295 65.5154 59.3144C65.3351 59.3685 65.1543 59.3665 65.1223 59.4357C64.46 60.6185 63.3745 60.7477 62.1735 60.7128C60.9075 60.6767 59.6423 60.7349 58.3766 60.7351C56.3569 60.7273 54.829 59.2734 54.9109 57.2687C54.9747 56.0679 55.1699 54.8777 55.4929 53.7197C55.8814 52.2437 57.0723 51.7472 58.4659 51.6988C60.7834 51.6314 63.1033 51.6384 65.4205 51.5438C65.8742 51.5253 66.4835 51.3169 66.7302 50.9883C67.3574 50.134 66.7682 49.1271 65.6816 49.1403C62.7365 49.1768 59.7917 49.2569 56.8468 49.3171C56.6931 49.3166 56.5447 49.3016 56.3764 49.2922ZM66.3486 53.8862C64.8353 53.8994 63.4805 53.8332 62.1473 53.9736C61.777 54.0131 61.332 54.6191 61.1695 55.0576C60.9346 55.6944 60.9572 56.4215 60.8094 57.0957C60.6267 57.9188 61.0211 58.3634 61.7466 58.4096C62.7629 58.4763 63.7829 58.4595 64.7965 58.3594C65.0856 58.3315 65.5017 57.9488 65.5769 57.6562C65.883 56.4692 66.0803 55.2542 66.3486 53.8862Z" fill="#F32D2F"/>
<path d="M128.393 60.0897L121.765 60.1476C122.81 55.6334 123.813 51.125 124.177 46.4172L130.125 46.3653L130.136 47.6529C130.359 47.5113 130.543 47.468 130.575 47.3643C130.927 46.2949 131.76 46.2477 132.679 46.2578C134.035 46.2786 135.391 46.2777 136.747 46.2223C138.639 46.1496 140.916 47.4754 140.603 50.0789C140.349 52.2321 139.971 54.3718 139.67 56.52C139.513 57.644 139.4 58.7767 139.261 59.9695L132.958 60.0245C133.561 56.6531 134.165 53.2799 134.768 49.9049C134.901 49.1602 134.621 48.5895 133.852 48.5219C132.949 48.4439 132.041 48.4519 131.14 48.5455C130.342 48.6269 129.892 49.1567 129.753 49.9813C129.306 52.6241 128.807 55.2582 128.376 57.9044C128.282 58.589 128.386 59.2972 128.393 60.0897Z" fill="#F32D2F"/>
<path d="M91.3443 46.6348C91.4297 47.5046 91.503 48.2457 91.5784 49.014C90.1731 48.9646 88.838 48.891 87.5017 48.8773C85.9357 48.8619 84.368 48.8575 82.8011 48.9401C82.3981 48.9617 81.8309 49.2315 81.6583 49.5576C81.3399 50.1553 81.8164 50.688 82.5723 50.6959C84.1974 50.7119 85.8248 50.7189 87.4545 50.7167C89.7652 50.7075 90.8889 51.8366 90.6772 54.1019C90.5497 55.2673 90.3497 56.4235 90.0782 57.5639C89.6695 59.4264 88.4142 60.4131 86.5739 60.4582C82.483 60.5556 78.3911 60.5496 74.1387 60.5867C74.1892 59.7411 74.2365 58.9535 74.2696 58.3947C77.2492 58.3686 80.1257 58.3435 83.0005 58.3185C83.6785 58.3125 84.0825 57.9916 84.2179 57.3466C84.3533 56.7016 83.9694 56.2261 83.304 56.2247C81.8882 56.2207 80.4727 56.2494 79.0588 56.2617C78.6376 56.2654 78.2143 56.2437 77.7926 56.2039C75.802 56.009 75.067 54.6607 75.1941 53.0708C75.3164 51.7204 75.5558 50.3833 75.9096 49.0746C76.2786 47.6404 77.2714 46.8229 78.7828 46.797C82.4853 46.7338 86.1952 46.6924 89.8906 46.642L91.3443 46.6348Z" fill="#F32D2F"/>
<path d="M159.399 48.2392C156.444 48.265 153.624 48.2896 150.802 48.3142C150.595 48.316 150.315 48.3058 150.2 48.4283C149.923 48.7191 149.571 49.0776 149.553 49.426C149.542 49.6328 150.101 50.0505 150.412 50.0641C152.125 50.1344 153.848 50.114 155.556 50.1136C157.683 50.115 158.887 51.5028 158.581 53.6328C158.443 54.5862 158.3 55.5414 158.116 56.4879C157.699 58.628 156.518 59.8063 154.398 59.8629C150.395 59.9686 146.388 59.9419 142.385 59.9677C142.331 59.9682 142.278 59.9251 142.107 59.8504C142.154 59.1246 142.201 58.3661 142.238 57.7926C145.109 57.7676 147.893 57.7433 150.677 57.7081C151.023 57.7051 151.514 57.6627 151.675 57.4437C151.944 57.0685 152.071 56.6098 152.034 56.1492C152.005 55.9391 151.417 55.6686 151.075 55.657C149.603 55.6137 148.126 55.6719 146.651 55.6666C143.863 55.6547 142.757 54.3495 143.247 51.5921C143.466 50.3515 143.748 49.1194 144.088 47.9067C144.405 46.765 145.357 46.2634 146.424 46.2323C150.547 46.1219 154.671 46.0896 158.796 46.0663C158.991 46.0646 159.33 46.4062 159.361 46.6218C159.411 47.1593 159.424 47.6998 159.399 48.2392Z" fill="#F32D2F"/>
<path d="M54.4295 47.0675C54.3748 47.8497 54.3217 48.5956 54.2832 49.1617C52.1624 49.1803 50.0777 49.1839 47.995 49.2166C46.3842 49.2452 46.0565 49.6071 45.7938 51.2127C45.5038 52.9962 45.1015 54.7626 44.8007 56.5444C44.5477 58.0156 45.0719 58.6223 46.5854 58.6272C48.5365 58.6355 50.4889 58.5931 52.5392 58.5752C52.3635 59.1607 52.1883 59.8097 51.9478 60.4303C51.8906 60.5255 51.8121 60.6059 51.7184 60.6653C51.6248 60.7247 51.5186 60.7613 51.4084 60.7723C48.1538 60.7844 44.8999 60.8708 41.6621 60.725C39.6144 60.6322 38.4646 58.9919 38.7634 56.9652C39.1052 54.7025 39.4634 52.4432 39.8705 50.1925C40.1707 48.5359 41.1088 47.055 43.4126 47.0784C46.9043 47.1042 50.3968 47.0012 53.8988 46.9597C54.0787 46.9788 54.2564 47.0149 54.4295 47.0675Z" fill="#F32D2F"/>
<path d="M36.3685 58.7274C35.7783 60.9252 35.7785 60.947 33.4912 60.9452C30.8477 60.9501 28.1994 61.0167 25.5601 60.882C23.3622 60.7688 22.1738 59.0598 22.5523 56.8475C22.9377 54.5928 23.3399 52.3404 23.7591 50.0902C24.0854 48.3245 25.2553 47.2987 27.0505 47.2576C30.5413 47.18 34.0325 47.1477 37.5218 47.0992C37.7026 47.0976 37.8747 47.1287 38.1841 47.1569C38.1439 47.9407 38.1054 48.7028 38.0744 49.2997C35.9717 49.3181 33.9448 49.3231 31.9164 49.3535C30.2296 49.3809 29.9152 49.6067 29.5911 51.2146C29.1994 53.1622 28.8857 55.1255 28.5303 57.0801C28.3802 57.9066 28.6976 58.4388 29.5111 58.6222C29.921 58.7144 30.3398 58.7606 30.7599 58.76C32.6134 58.7765 34.4719 58.7439 36.3685 58.7274Z" fill="#F32D2F"/>
<path d="M98.6294 60.5289L93.1258 60.577C93.8705 55.9802 94.6065 51.436 95.3564 46.821L100.867 46.7729C100.115 51.3789 99.3812 55.9248 98.6294 60.5289Z" fill="#F32D2F"/>
<path d="M95.417 40.7087C95.4154 38.6593 97.3221 36.4881 99.4431 36.0851C100.6 35.8664 101.712 35.795 102.649 36.6937C103.457 37.4683 103.729 38.3746 103.434 39.4871C102.88 41.5957 100.757 43.4315 98.6459 43.5569C96.8315 43.6671 95.4193 42.4207 95.417 40.7087Z" fill="#F32D2F"/>
</g>
<defs>
<clipPath id="clip0_253_103">
<rect width="159" height="60" fill="white" transform="translate(0 1.38745) rotate(-0.5)"/>
</clipPath>
</defs>
</svg>
