<svg width="131" height="48" viewBox="0 0 131 48" fill="none" xmlns="http://www.w3.org/2000/svg">
<path d="M5.01362 47C4.26638 47.2179 3.5347 47.3269 2.8186 47.3269C2.04022 47.3269 1.32411 47.2179 0.670271 47V13.2806H11.1784C15.1637 13.2806 18.1994 14.168 20.2854 15.9427C22.4026 17.7174 23.4612 20.1926 23.4612 23.3684C23.4612 26.8244 22.3092 29.5176 20.0052 31.448C17.7323 33.3784 14.6499 34.3436 10.7581 34.3436H5.01362V47ZM11.1784 17.2971H5.01362V30.3738H10.3377C13.171 30.3738 15.3194 29.7978 16.7827 28.6458C18.2461 27.4938 18.9777 25.7814 18.9777 23.5085C18.9777 19.3676 16.3779 17.2971 11.1784 17.2971ZM35.4466 47.6538C33.4851 47.6538 31.7571 47.1868 30.2626 46.2528C28.7993 45.3187 27.6473 44.011 26.8066 42.3297C25.9971 40.6484 25.5924 38.7181 25.5924 36.5386C25.5924 34.1723 26.0594 32.0707 26.9934 30.2337C27.9275 28.3968 29.1885 26.949 30.7764 25.8904C32.3954 24.8318 34.2324 24.3025 36.2873 24.3025C37.377 24.3025 38.4512 24.5204 39.5098 24.9563C40.5684 25.3611 41.4557 25.9215 42.1718 26.6376V24.7228C42.452 24.6294 42.779 24.5516 43.1526 24.4893C43.5262 24.427 43.9154 24.3959 44.3202 24.3959C45.0674 24.3959 45.7679 24.5049 46.4218 24.7228V38.827C46.4218 40.6329 46.6553 41.8938 47.1223 42.6099C47.6205 43.2949 48.3366 43.6374 49.2706 43.6374C49.7065 43.6374 50.0335 43.8242 50.2514 44.1978C50.5005 44.5715 50.625 45.0696 50.625 45.6923C50.625 46.1905 50.4849 46.6419 50.2047 47.0467C49.9556 47.4515 49.5353 47.6538 48.9437 47.6538C47.6672 47.6538 46.4996 47.3581 45.441 46.7665C44.3824 46.1749 43.5729 45.2409 43.0125 43.9643C42.1096 45.1163 41.0043 46.0192 39.6966 46.6731C38.42 47.3269 37.0034 47.6538 35.4466 47.6538ZM29.9357 36.5386C29.9357 38.7492 30.4339 40.4928 31.4302 41.7693C32.4577 43.0147 33.8587 43.6374 35.6334 43.6374C37.595 43.6374 39.1673 42.9213 40.3504 41.4891C41.5647 40.0257 42.1718 38.1109 42.1718 35.7446V31.1211C41.5491 30.2804 40.7552 29.611 39.79 29.1129C38.8248 28.5836 37.8285 28.3189 36.801 28.3189C35.4622 28.3189 34.2791 28.677 33.2516 29.3931C32.2242 30.1092 31.4146 31.0899 30.8231 32.3354C30.2315 33.5496 29.9357 34.9507 29.9357 36.5386ZM49.2692 43.6374C49.923 43.6374 50.6236 43.435 51.3708 43.0303C52.118 42.6255 52.8186 42.0028 53.4724 41.1622C54.3753 39.9168 54.998 38.4534 55.3405 36.7721C55.7142 35.0908 55.901 33.4562 55.901 31.8683V24.9563C56.1812 24.8629 56.5081 24.7851 56.8817 24.7228C57.2553 24.6605 57.6445 24.6294 58.0493 24.6294C58.7654 24.6294 59.4659 24.7384 60.1509 24.9563V35.7446C60.1509 38.4534 60.5868 40.4305 61.4586 41.6759C62.3304 42.8902 63.7003 43.4973 65.5684 43.4973C70.0207 43.4973 72.2469 40.2437 72.2469 33.7364V24.9563C72.496 24.8629 72.8073 24.7851 73.181 24.7228C73.5546 24.6605 73.9438 24.6294 74.3485 24.6294C75.0958 24.6294 75.8119 24.7384 76.4969 24.9563V38.4067C76.4969 40.0569 76.7459 41.349 77.2441 42.283C77.7734 43.1859 78.6452 43.6374 79.8595 43.6374C80.3887 43.6374 80.7468 43.8554 80.9336 44.2912C81.1204 44.7271 81.2138 45.1942 81.2138 45.6923C81.2138 46.1905 81.0737 46.6419 80.7935 47.0467C80.5444 47.4515 80.1241 47.6538 79.5325 47.6538C76.5436 47.6538 74.5198 46.3462 73.4612 43.7308C72.5894 45.0074 71.4685 45.9881 70.0986 46.6731C68.7286 47.3269 67.1096 47.6538 65.2415 47.6538C61.2873 47.6538 58.5786 45.9725 57.1152 42.6099C56.6171 43.5129 56.0566 44.2757 55.4339 44.8984C54.5933 45.739 53.6125 46.4084 52.4917 46.9066C51.4019 47.4048 50.2188 47.6538 48.9423 47.6538C48.5064 47.6538 48.1794 47.4359 47.9615 47C47.7124 46.5952 47.5879 46.1438 47.5879 45.6456C47.5879 45.1163 47.728 44.6493 48.0082 44.2445C48.2573 43.8398 48.6776 43.6374 49.2692 43.6374ZM79.5453 47.6538C79.1405 47.6538 78.8136 47.467 78.5645 47.0934C78.3155 46.7198 78.1909 46.2372 78.1909 45.6456C78.1909 45.0229 78.3466 44.5403 78.6579 44.1978C78.9382 43.8242 79.3274 43.6374 79.8255 43.6374C80.8841 43.6374 82.0361 43.2326 83.2815 42.4231C84.5269 41.6136 85.7101 40.5083 86.8309 39.1072C86.6441 37.9864 86.504 36.6164 86.4106 34.9974C86.3172 33.3784 86.2549 31.3546 86.2238 28.9261C86.1927 26.4975 86.1771 23.5085 86.1771 19.9591V14.1213C86.1771 12.6579 86.2238 11.3191 86.3172 10.1049C86.4417 8.89059 86.6441 7.80086 86.9243 6.83567C87.5159 4.81189 88.3877 3.33297 89.5397 2.39891C90.7228 1.43372 92.1239 0.95113 93.7429 0.95113C96.0781 0.95113 97.8995 2.02529 99.2071 4.17362C100.546 6.29081 101.215 9.24864 101.215 13.0471C101.215 17.5306 100.344 22.1386 98.6 26.8711C96.8564 31.5725 94.3656 36.0716 91.1276 40.3682C91.1587 40.4305 91.1898 40.5083 91.221 40.6017C91.6257 41.5981 92.1862 42.3609 92.9023 42.8902C93.6495 43.4195 94.5991 43.6841 95.7511 43.6841C96.187 43.6841 96.5295 43.8709 96.7786 44.2445C97.0588 44.587 97.1989 45.0696 97.1989 45.6923C97.1989 47 96.6229 47.6538 95.4709 47.6538C93.6028 47.6538 92.0928 47.2646 90.9408 46.4863C89.7888 45.7079 88.9014 44.7271 88.2787 43.544C85.6011 46.2839 82.6899 47.6538 79.5453 47.6538ZM90.1468 20.2393C90.1468 23.9444 90.1468 26.949 90.1468 29.253C90.178 31.557 90.2247 33.4251 90.2869 34.8573C94.9261 27.1669 97.2456 19.8813 97.2456 13.0004C97.2456 10.3539 96.9343 8.33016 96.3116 6.92908C95.72 5.528 94.8482 4.82745 93.6962 4.82745C92.5442 4.82745 91.6569 5.55913 91.0342 7.02248C90.4426 8.48583 90.1468 11.0233 90.1468 14.635V20.2393ZM95.5833 47.6538C95.1785 47.6538 94.8516 47.467 94.6025 47.0934C94.3223 46.7198 94.1822 46.2372 94.1822 45.6456C94.1822 45.0541 94.3379 44.587 94.6492 44.2445C94.9606 43.8709 95.3654 43.6841 95.8635 43.6841C97.6382 43.6841 99.3351 43.2326 100.954 42.3297C102.604 41.4268 104.021 40.2437 105.204 38.7803C105.048 37.784 104.924 36.5075 104.83 34.9507C104.737 33.3628 104.659 31.3546 104.597 28.9261C104.566 26.4975 104.55 23.5085 104.55 19.9591V14.1213C104.55 12.6579 104.597 11.3191 104.69 10.1049C104.815 8.89059 105.017 7.80086 105.297 6.83567C105.889 4.81189 106.761 3.33297 107.913 2.39891C109.096 1.43372 110.497 0.95113 112.116 0.95113C114.451 0.95113 116.273 2.02529 117.58 4.17362C118.919 6.29081 119.588 9.24864 119.588 13.0471C119.588 17.4995 118.717 22.0919 116.973 26.8244C115.261 31.5258 112.785 36.0093 109.547 40.2748C110.575 42.5477 112.178 43.6841 114.358 43.6841C114.825 43.6841 115.339 43.6063 115.899 43.4506C116.491 43.2949 117.067 43.0458 117.627 42.7034C118.063 43.0147 118.436 43.4662 118.748 44.0577C119.059 44.6182 119.246 45.2253 119.308 45.8791C118.468 46.5641 117.611 47.0311 116.74 47.2802C115.899 47.5293 115.012 47.6538 114.078 47.6538C112.427 47.6538 110.98 47.2646 109.734 46.4863C108.52 45.7079 107.508 44.587 106.699 43.1237C105.048 44.6804 103.289 45.8324 101.421 46.5797C99.553 47.2958 97.6071 47.6538 95.5833 47.6538ZM108.52 14.635V20.2393C108.52 24.0067 108.52 27.0579 108.52 29.3931C108.551 31.6971 108.598 33.5185 108.66 34.8573C113.299 27.1669 115.619 19.8813 115.619 13.0004C115.619 10.3539 115.307 8.33016 114.685 6.92908C114.093 5.528 113.221 4.82745 112.069 4.82745C110.917 4.82745 110.03 5.55913 109.407 7.02248C108.816 8.48583 108.52 11.0233 108.52 14.635ZM127.55 47.6538C126.678 47.6538 125.931 47.3425 125.308 46.7198C124.686 46.0659 124.374 45.3031 124.374 44.4314C124.374 43.5596 124.686 42.8123 125.308 42.1896C125.931 41.5669 126.678 41.2556 127.55 41.2556C128.422 41.2556 129.169 41.5669 129.792 42.1896C130.446 42.8123 130.773 43.5596 130.773 44.4314C130.773 45.3031 130.446 46.0659 129.792 46.7198C129.169 47.3425 128.422 47.6538 127.55 47.6538Z" fill="#00AAFF"/>
</svg>
