<svg width="68" height="67" viewBox="0 0 68 67" fill="none" xmlns="http://www.w3.org/2000/svg">
<g id="bi:github">
<path id="Vector" d="M34 0C15.215 0 0 14.9913 0 33.5C0 48.3237 9.7325 60.8444 23.2475 65.2831C24.9475 65.5762 25.585 64.5713 25.585 63.6919C25.585 62.8963 25.5425 60.2581 25.5425 57.4525C17 59.0019 14.79 55.4006 14.11 53.5163C13.7275 52.5531 12.07 49.58 10.625 48.7844C9.435 48.1562 7.735 46.6069 10.5825 46.565C13.26 46.5231 15.1725 48.9937 15.81 49.9987C18.87 55.0656 23.7575 53.6419 25.7125 52.7625C26.01 50.585 26.9025 49.1194 27.88 48.2819C20.315 47.4444 12.41 44.555 12.41 31.7412C12.41 28.0981 13.7275 25.0831 15.895 22.7381C15.555 21.9006 14.365 18.4669 16.235 13.8606C16.235 13.8606 19.0825 12.9813 25.585 17.2944C28.305 16.5406 31.195 16.1637 34.085 16.1637C36.975 16.1637 39.865 16.5406 42.585 17.2944C49.0875 12.9394 51.935 13.8606 51.935 13.8606C53.805 18.4669 52.615 21.9006 52.275 22.7381C54.4425 25.0831 55.76 28.0562 55.76 31.7412C55.76 44.5969 47.8125 47.4444 40.2475 48.2819C41.48 49.3288 42.5425 51.3388 42.5425 54.4794C42.5425 58.96 42.5 62.5612 42.5 63.6919C42.5 64.5713 43.1375 65.6181 44.8375 65.2831C51.5875 63.0386 57.4529 58.7646 61.6081 53.063C65.7633 47.3614 67.9988 40.5192 68 33.5C68 14.9913 52.785 0 34 0Z" fill="white"/>
</g>
</svg>
