<svg width="68" height="68" viewBox="0 0 68 68" fill="none" xmlns="http://www.w3.org/2000/svg">
<path id="Vector" d="M27.7409 27.7402C30.9556 24.526 35.2829 22.6702 39.8276 22.5567C44.3723 22.4433 48.7868 24.0809 52.1579 27.1307L52.7993 27.7402L62.8213 37.7649C66.0853 41.0345 67.9431 45.4494 67.9987 50.0688C68.0544 54.6882 66.3034 59.1466 63.1191 62.4938C59.9348 65.841 55.569 67.8122 50.9522 67.9873C46.3355 68.1623 41.8329 66.5274 38.4043 63.4309L37.7664 62.8214L30.2464 55.302C29.6108 54.6643 29.2418 53.8086 29.2143 52.9087C29.1868 52.0089 29.5029 51.1323 30.0984 50.457C30.6939 49.7817 31.5241 49.3584 32.4204 49.273C33.3167 49.1876 34.2119 49.4466 34.9242 49.9973L35.2574 50.2914L42.7774 57.8108C44.7267 59.7714 47.3633 60.8955 50.1277 60.9447C52.8921 60.9939 55.567 59.9642 57.5849 58.0742C59.6027 56.1842 60.8049 53.5825 60.9363 50.8209C61.0677 48.0594 60.118 45.3553 58.2887 43.2822L57.8103 42.7755L47.7883 32.7508C46.8011 31.7635 45.629 30.9802 44.339 30.4459C43.049 29.9115 41.6664 29.6365 40.2701 29.6365C38.8738 29.6365 37.4912 29.9115 36.2012 30.4459C34.9112 30.9802 33.7391 31.7635 32.7519 32.7508C32.0835 33.3963 31.1883 33.7535 30.2591 33.7454C29.3299 33.7373 28.4411 33.3646 27.7841 32.7076C27.127 32.0506 26.7543 31.1619 26.7462 30.2327C26.7381 29.3036 27.0953 28.4085 27.7409 27.7402ZM5.18793 5.18899C8.40265 1.97474 12.7299 0.118968 17.2746 0.00552395C21.8194 -0.107921 26.2338 1.52964 29.6049 4.5795L30.2464 5.18899L37.7628 12.712C38.3984 13.3497 38.7674 14.2053 38.7949 15.1052C38.8224 16.0051 38.5063 16.8817 37.9108 17.557C37.3153 18.2323 36.4851 18.6556 35.5888 18.741C34.6925 18.8264 33.7973 18.5674 33.085 18.0167L32.7519 17.7226L25.2354 10.2067C23.2826 8.26678 20.6535 7.15984 17.9012 7.11872C15.1489 7.0776 12.4879 8.10552 10.478 9.98621C8.46819 11.8669 7.26619 14.4538 7.1249 17.2026C6.98362 19.9514 7.91406 22.6478 9.72049 24.7246L10.1989 25.2349L20.2244 35.2596C22.2181 37.2526 24.9218 38.3722 27.7409 38.3722C30.56 38.3722 33.2636 37.2526 35.2574 35.2596C35.5864 34.9304 35.977 34.6692 36.407 34.4909C36.837 34.3127 37.2979 34.2208 37.7634 34.2206C38.2288 34.2205 38.6898 34.312 39.1199 34.49C39.55 34.6679 39.9408 34.9289 40.2701 35.2579C40.5994 35.5869 40.8606 35.9775 41.0389 36.4074C41.2172 36.8374 41.309 37.2982 41.3092 37.7637C41.3093 38.2291 41.2178 38.69 41.0398 39.1201C40.8619 39.5502 40.6009 39.941 40.2719 40.2702C37.0572 43.4845 32.7299 45.3402 28.1852 45.4537C23.6404 45.5671 19.226 43.9296 15.8549 40.8797L15.2099 40.2702L5.18793 30.2455C1.8661 26.9229 0 22.4171 0 17.719C0 13.0209 1.8661 8.51157 5.18793 5.18899Z" fill="white"/>
</svg>
