<svg width="51" height="20" viewBox="0 0 51 20" fill="none" xmlns="http://www.w3.org/2000/svg">
<path d="M37.687 19.8241C43.6879 19.8241 48.5525 15.3863 48.5525 9.91204C48.5525 4.43777 43.6879 0 37.687 0C31.6862 0 26.8215 4.43777 26.8215 9.91204C26.8215 15.3863 31.6862 19.8241 37.687 19.8241Z" fill="white"/>
<path d="M10.8655 19.8241C16.8663 19.8241 21.731 15.3863 21.731 9.91204C21.731 4.43777 16.8663 0 10.8655 0C4.86465 0 0 4.43777 0 9.91204C0 15.3863 4.86465 19.8241 10.8655 19.8241Z" fill="white"/>
<path d="M9.8182 9.91981C8.34702 12.7056 9.62996 16.0519 12.6837 17.394C15.7375 18.7361 19.4057 17.5657 20.8769 14.7799C22.348 11.9941 21.0651 8.64781 18.0113 7.30573C14.9576 5.96365 11.2894 7.13401 9.8182 9.91981Z" fill="black"/>
<path d="M36.8754 10.0958C35.4043 12.8816 36.6872 16.2279 39.741 17.57C42.7947 18.912 46.4629 17.7417 47.9341 14.9559C49.4053 12.1701 48.1223 8.82377 45.0686 7.48169C42.0148 6.13961 38.3466 7.30998 36.8754 10.0958Z" fill="black"/>
</svg>
